<svg xmlns="http://www.w3.org/2000/svg" viewBox="109.4 168 213.1 96"><style>.tgs-mark{fill:#ed8000}.tgs-type{fill:#2c1000}</style><path class="tgs-mark" d="M126.72,189.81v.77h-5.36v13.17h-3.43V190.58h-5.48v-3.07h12A2.3,2.3,0,0,1,126.72,189.81Z"/><path class="tgs-mark" d="M128,187.51h.56a2.3,2.3,0,0,1,2.3,2.3v3.09a3.44,3.44,0,0,1,1.15-.75,5.54,5.54,0,0,1,1.26-.32,8.16,8.16,0,0,1,1.51,0,7.64,7.64,0,0,1,1.63.32,5.3,5.3,0,0,1,1.11.57,3.61,3.61,0,0,1,1.45,2,6.88,6.88,0,0,1,.22,1.63v7.52h-3v-6.46a2.63,2.63,0,0,0-.67-2,2.45,2.45,0,0,0-1.93-.66,3.22,3.22,0,0,0-1.93.62,2.59,2.59,0,0,0-.95,2.07v6.44H128Z"/><path class="tgs-mark" d="M151.67,199h-8.49a2.57,2.57,0,0,0,.83,1.74,2.93,2.93,0,0,0,2.34.82,4.25,4.25,0,0,0,1.75-.31,3,3,0,0,0,.88-.64.8.8,0,0,1,.78-.19l2,.63a6.36,6.36,0,0,1-2.12,2.16,6.44,6.44,0,0,1-3.22.69,5.94,5.94,0,0,1-3-.63,6.17,6.17,0,0,1-2.13-2.05,5.82,5.82,0,0,1-.93-3.29,6.06,6.06,0,0,1,1.72-4.53,5.2,5.2,0,0,1,4-1.62,6,6,0,0,1,3.19.71,5,5,0,0,1,2.11,2.18,8.44,8.44,0,0,1,.73,3.83h0A.5.5,0,0,1,151.67,199Zm-2.29-2.08a2.74,2.74,0,0,0-.92-2,3.13,3.13,0,0,0-2.19-.77,3.28,3.28,0,0,0-2.22.8,2.56,2.56,0,0,0-.84,1.92Z"/><path class="tgs-type" d="M201,192.79a1.31,1.31,0,0,1,1.31,1.31h0a22.69,22.69,0,0,1-6.53,16.6,21.73,21.73,0,0,1-16.24,6.68A25,25,0,0,1,164.4,212a27.36,27.36,0,0,1-5.71-7.37q-2-3.92-2.22-10.68a18.36,18.36,0,0,1,1.92-8.91,33.27,33.27,0,0,1,2.56-4.27,29.31,29.31,0,0,1,3.13-3.52,22.17,22.17,0,0,1,7.13-4.66,26,26,0,0,1,9-1.54,20.46,20.46,0,0,1,12.22,3.59,23,23,0,0,1,8,10.21H190a15.32,15.32,0,0,0-4.53-3.68A13.86,13.86,0,0,0,179.7,180a13.1,13.1,0,0,0-9.7,4.16,15.06,15.06,0,0,0,.09,20.15,13.21,13.21,0,0,0,9.89,4.15,12.09,12.09,0,0,0,7.19-2.29,12.27,12.27,0,0,0,4.8-5.87H174.76V195a2.25,2.25,0,0,1,2.25-2.25Z"/><path class="tgs-type" d="M205.21,183.7h5.87a2.24,2.24,0,0,1,2.25,2.24V188a23.44,23.44,0,0,1,4.48-3.57,7.25,7.25,0,0,1,4.62-.81l3.31.7-2.31,5.74a1.59,1.59,0,0,1-2.36.74h0a8.25,8.25,0,0,0-3.4,0q-4.11,1.11-4.43,6.53v18.37a2.24,2.24,0,0,1-2.25,2.24h-5.78Z"/><path class="tgs-type" d="M257.73,203.89H233.38a7.55,7.55,0,0,0,2.38,5,8.47,8.47,0,0,0,6.72,2.33,11.93,11.93,0,0,0,5-.89,8.86,8.86,0,0,0,2.53-1.82,2.23,2.23,0,0,1,2.24-.55l5.84,1.81A18,18,0,0,1,252,216q-3.42,2-9.21,2a16.94,16.94,0,0,1-8.58-1.79,17.61,17.61,0,0,1-6.11-5.9,16.7,16.7,0,0,1-2.66-9.42q0-8.13,4.92-13a15.1,15.1,0,0,1,11.55-4.64,17.6,17.6,0,0,1,9.14,2,14.64,14.64,0,0,1,6,6.23q2.07,4,2.08,11h0A1.44,1.44,0,0,1,257.73,203.89Zm-6.58-6a7.77,7.77,0,0,0-2.61-5.59,9,9,0,0,0-6.3-2.2,9.37,9.37,0,0,0-6.34,2.29,7.31,7.31,0,0,0-2.43,5.5Z"/><path class="tgs-type" d="M262,201.28a16.78,16.78,0,0,1,4.51-12.06q4.5-4.72,12.15-4.73,6.66.22,9.89,3.45V186.5a2.24,2.24,0,0,1,2.25-2.24h5.72v33.49h-5.54a2.25,2.25,0,0,1-2.25-2.25v-1.06a15.52,15.52,0,0,1-3.75,2.4,17.88,17.88,0,0,1-6.32,1q-7,0-11.34-3.92A16.38,16.38,0,0,1,262,201.28Zm10.92,7.19q2.39,2.15,7.18,2.28a9.84,9.84,0,0,0,6-2.59,9.49,9.49,0,0,0,2.55-6.27,10,10,0,0,0-1.54-6.44,9.53,9.53,0,0,0-8-3.73,10.57,10.57,0,0,0-6.9,2.94,10.46,10.46,0,0,0,.65,13.81Z"/><path class="tgs-type" d="M304.45,174.6l4.65-2.28a2.25,2.25,0,0,1,3.24,2v9.22l5,0a2.24,2.24,0,0,1,2.23,2.26l0,3.17a2.24,2.24,0,0,1-2.25,2.23h-4.94v13.86c-.07,2.61.42,4.4,1.44,5.36a9.17,9.17,0,0,0,4.34,2.05h0a1.62,1.62,0,0,1,1,2.29l-2.65,5.27-3-.89a14.19,14.19,0,0,1-6.2-3.87,11.42,11.42,0,0,1-2.33-4.15,19.85,19.85,0,0,1-.52-5.08V191.53l-4.76.05v-8.07l4.76.05Z"/><path class="tgs-type" d="M151.65,213.69h1.56a6.35,6.35,0,0,1,6.35,6.35v8.53a9.81,9.81,0,0,1,3.17-2.07,15.25,15.25,0,0,1,3.49-.87,21.62,21.62,0,0,1,4.18-.12,20.3,20.3,0,0,1,4.5.9A13.8,13.8,0,0,1,178,228a9.86,9.86,0,0,1,2.49,2.42A10,10,0,0,1,182,233.5a20.18,20.18,0,0,1,.61,4.52v20.77H174.4V240.94a7.27,7.27,0,0,0-1.84-5.55,6.76,6.76,0,0,0-5.35-1.83,8.85,8.85,0,0,0-5.33,1.71c-1.57,1.14-2.45,3-2.63,5.71v17.81h-7.6Z"/><path class="tgs-type" d="M112.45,252.18l.66-.62a10.6,10.6,0,0,1,12-1.54l.07,0a11.49,11.49,0,0,0,3.37.85,15.9,15.9,0,0,0,2.25.16,18.92,18.92,0,0,0,5.94-1.08q3.42-1.62,3.64-4.41,0-3.15-4.23-4.77l-10.56-2.15a21.2,21.2,0,0,1-9.27-4.37,12.25,12.25,0,0,1-2.38-3.35,8.84,8.84,0,0,1-.81-3.8,11.59,11.59,0,0,1,4.81-9.75q5-3.69,13.09-3.69a34.1,34.1,0,0,1,8.25,1.1,31.32,31.32,0,0,1,10,5.15l-2.07,1.6a8.43,8.43,0,0,1-8.65,1l0,0a20.12,20.12,0,0,0-6.77-1.44,14.44,14.44,0,0,0-7.08,1.44,3.88,3.88,0,0,0-2.14,4.23q.22,3.83,8.82,4.81a56.3,56.3,0,0,1,9.19,1.78,17.19,17.19,0,0,1,5.69,3.35,9.63,9.63,0,0,1,3.1,7.24A13,13,0,0,1,144,254.74q-5.25,4-14.12,4a23.58,23.58,0,0,1-9.71-1.8,36.53,36.53,0,0,1-5.46-2.81C114,253.61,113.29,253,112.45,252.18Z"/><path class="tgs-type" d="M299.77,225.92h5.65a2.17,2.17,0,0,1,2.17,2.17v2a22.22,22.22,0,0,1,4.32-3.44,7,7,0,0,1,4.45-.78l3.19.67-2.22,5.54a1.54,1.54,0,0,1-2.27.71h0a8.06,8.06,0,0,0-3.29,0c-2.63.71-4.06,2.81-4.27,6.29v17.71a2.17,2.17,0,0,1-2.17,2.16h-5.56Z"/><path class="tgs-type" d="M294.7,245.39H271.22a7.25,7.25,0,0,0,2.3,4.81,8.13,8.13,0,0,0,6.47,2.25,11.54,11.54,0,0,0,4.84-.85,8.6,8.6,0,0,0,2.43-1.76,2.15,2.15,0,0,1,2.16-.53l5.64,1.75a17.49,17.49,0,0,1-5.87,5.95,17.68,17.68,0,0,1-8.88,1.91,16.38,16.38,0,0,1-8.28-1.73,17,17,0,0,1-5.89-5.68,16.07,16.07,0,0,1-2.56-9.09q0-7.81,4.74-12.52a14.56,14.56,0,0,1,11.13-4.47,17,17,0,0,1,8.82,2,14.12,14.12,0,0,1,5.82,6q2,3.89,2,10.59h0A1.39,1.39,0,0,1,294.7,245.39Zm-6.34-5.76a7.54,7.54,0,0,0-2.52-5.39,8.7,8.7,0,0,0-6.07-2.11,9,9,0,0,0-6.12,2.2,7.06,7.06,0,0,0-2.34,5.3Z"/><path class="tgs-mark" d="M213.41,232.73a16.48,16.48,0,0,0-1.61,2.86,18.07,18.07,0,0,0-1,3.09c-.08-.05-.08-.12-.11-.17a10.76,10.76,0,0,0-8-6.7,10.38,10.38,0,0,0-8.33,1.67,10.66,10.66,0,0,0-4.67,7.2A10.94,10.94,0,0,0,197.16,253a11,11,0,0,0,14-8.13,10.15,10.15,0,0,0,.24-2.05,17,17,0,0,1,.18-2.57,15.56,15.56,0,0,1,2-5.69,16.21,16.21,0,0,1,8.9-7.34,15.79,15.79,0,0,1,6-.83,16.24,16.24,0,0,1,14.19,10,15.75,15.75,0,0,1,1.24,6.94,16.24,16.24,0,0,1-12.58,15.1,15.49,15.49,0,0,1-5.08.33,16.27,16.27,0,0,1-10.62-5.29,9.7,9.7,0,0,1-.85-1,17.24,17.24,0,0,0,2.63-6c.09,0,.1.15.13.22a10.9,10.9,0,0,0,2.71,4,11.11,11.11,0,0,0,5.58,2.78,11,11,0,0,0,12.38-7.76,9.9,9.9,0,0,0,.44-2.9,11,11,0,0,0-9.35-11,10.24,10.24,0,0,0-6.05.85,10.8,10.8,0,0,0-6.18,7.39,12.2,12.2,0,0,0-.33,2.77,15.61,15.61,0,0,1-1.83,7.33,16.15,16.15,0,0,1-10.75,8.3,15.49,15.49,0,0,1-4.4.38,16.25,16.25,0,0,1-14.17-9.8,16.71,16.71,0,0,1-1.23-4.66,16.15,16.15,0,0,1,.08-4,15.74,15.74,0,0,1,2.61-6.76,16.1,16.1,0,0,1,9.53-6.7,15.67,15.67,0,0,1,5.15-.43,16.16,16.16,0,0,1,11.47,6l.18.23S213.38,232.69,213.41,232.73Z"/><circle class="tgs-mark" cx="200.43" cy="242.53" r="1.56"/><path class="tgs-type" d="M200.71,250.56c0,.25,0,.5,0,.74l0,.72a4.51,4.51,0,0,1-.64,0,3.85,3.85,0,0,1,0-.48c0-.17,0-.33,0-.49s0-.32,0-.5H200a7.85,7.85,0,0,1-3.79-1.21,8.14,8.14,0,0,1-3.45-4.54,6.66,6.66,0,0,1-.26-1.33c0-.18,0-.37,0-.55a.31.31,0,0,1,0-.1h-.08l-.53,0-.8,0H191a2.74,2.74,0,0,1,0-.64c.24,0,.48,0,.72,0l.74,0a8,8,0,0,1,7.74-7.73c0-.51,0-1-.06-1.5a3.43,3.43,0,0,1,.65,0s0,.05,0,.08l0,.72,0,.62v.08l.8.08a6.86,6.86,0,0,1,.79.14,7.49,7.49,0,0,1,.77.23,6.74,6.74,0,0,1,.74.3c.24.12.48.24.71.38a6.88,6.88,0,0,1,.66.44,7.79,7.79,0,0,1,.63.51,7.4,7.4,0,0,1,.56.56c.18.2.35.41.51.62s.31.44.45.67.26.47.37.71.21.49.3.74.16.51.23.77a5.24,5.24,0,0,1,.15.79c0,.26.05.53.08.8l.72,0,.73,0c0,.07,0,.14,0,.21v.43h-.08l-.79,0-.54,0h-.07a8,8,0,0,1-7.75,7.74Zm-5.81-7.85a5.21,5.21,0,0,0,.68,2.51,5.67,5.67,0,0,0,2.57,2.39,5.18,5.18,0,0,0,2.14.48V248l0-.52c0-.42,0-.84.05-1.25,0-.68,0-1.36,0-2,0,0,0-.06,0-.09h-.06a1.35,1.35,0,0,1-.56-.17,1.53,1.53,0,0,1-.85-1.24s0-.05,0-.09H197.8l-1.38,0-1.22.05Zm7.12-.08a1.6,1.6,0,0,1-1.48,1.5.28.28,0,0,0,0,.09v.29c0,1,0,1.89,0,2.83,0,.23,0,.47,0,.7,0,0,0,0,0,.07l.5,0a5.93,5.93,0,0,0,1.09-.25,5.63,5.63,0,0,0,2.42-1.63,5.26,5.26,0,0,0,1.1-1.92,5.16,5.16,0,0,0,.27-1.47v-.09C204.67,242.62,203.35,242.62,202,242.63Zm-7.13-.25.17,0,.74,0,1,0h2a1.6,1.6,0,0,1,.46-1,1.57,1.57,0,0,1,1-.47.38.38,0,0,0,0-.1c0-.89,0-1.78,0-2.68,0-.37,0-.74-.05-1.12,0,0,0,0,0-.06a5.37,5.37,0,0,0-3.63,1.49A5.6,5.6,0,0,0,194.89,242.38Zm5.64-1.42a3.75,3.75,0,0,1,.39.09,2.21,2.21,0,0,1,.35.16,1.33,1.33,0,0,1,.3.23,1.19,1.19,0,0,1,.23.31,3.68,3.68,0,0,1,.15.35c0,.12.05.25.08.38h.47c.76,0,1.52,0,2.27,0l1.16-.05H206a.08.08,0,0,0,0,0,5.82,5.82,0,0,0-.2-1.25,5.54,5.54,0,0,0-5.07-4.09s-.07,0-.11,0C200.53,238.33,200.51,239.64,200.53,241Zm-6.24,1.78c-.1,0-1.12,0-1.21,0v.12a9.3,9.3,0,0,0,.13,1.06,7.28,7.28,0,0,0,2.24,4,7.5,7.5,0,0,0,2.74,1.6,6.43,6.43,0,0,0,1.3.29c.22,0,.44,0,.67.06h.05c0-.1.06-1.11,0-1.18a6.21,6.21,0,0,1-6-6Zm12.31,0v.06a5.82,5.82,0,0,1-.07.73,6.15,6.15,0,0,1-.75,2.1,6.21,6.21,0,0,1-2.22,2.22,6.07,6.07,0,0,1-2.71.85h-.21v.3c0,.1,0,.2,0,.3s0,.19,0,.28a1.51,1.51,0,0,0,0,.3h.07l.38,0a6.43,6.43,0,0,0,1.31-.24,7.45,7.45,0,0,0,2.83-1.54,7.29,7.29,0,0,0,2.29-3.62,6.9,6.9,0,0,0,.24-1.63v-.05A12,12,0,0,0,206.6,242.74Zm-6.39-7.54a7,7,0,0,0-2.27.44,7.34,7.34,0,0,0-2.89,1.92,7.19,7.19,0,0,0-1.7,3,6.84,6.84,0,0,0-.25,1.72l.59,0c.2,0,.4,0,.6,0a6.19,6.19,0,0,1,6-6C200.24,236,200.23,235.6,200.21,235.2Zm.43,1.19h.07a5.53,5.53,0,0,1,.7.07,6.15,6.15,0,0,1,5.17,5.63l0,.26,1.2-.05a7.14,7.14,0,0,0-.54-2.51,7.24,7.24,0,0,0-2-2.79,7.43,7.43,0,0,0-3.26-1.65,5.9,5.9,0,0,0-1.34-.14Zm-.28,4.77a1.37,1.37,0,0,0-1.29,1.31h1.07a.37.37,0,0,1,.22-.22Zm0,1.71-.14-.11a.73.73,0,0,1-.09-.13c-.16,0-1,0-1.07,0s0,0,0,.05a1.42,1.42,0,0,0,1.17,1.25h.13Zm1.47-.4s0,0,0,0,0-.09,0-.13a1.26,1.26,0,0,0-.34-.69,1.43,1.43,0,0,0-.81-.45h-.14v1.09a.37.37,0,0,1,.22.22Zm0,.17a9.54,9.54,0,0,0-1.07,0l-.09.13-.13.09c0,.15,0,1,0,1.08A1.36,1.36,0,0,0,201.83,242.64Z"/><circle class="tgs-mark" cx="227.62" cy="242.53" r="1.56"/><path class="tgs-type" d="M227.91,250.56c0,.25,0,.5,0,.74l0,.72a4.48,4.48,0,0,1-.64,0c0-.16,0-.32,0-.48s0-.33,0-.49a4.1,4.1,0,0,0,0-.5h-.2a7.89,7.89,0,0,1-3.79-1.21,8.14,8.14,0,0,1-3.45-4.54,7.45,7.45,0,0,1-.26-1.33c0-.18,0-.37,0-.55,0,0,0-.06,0-.1h-.07l-.54,0-.8,0h-.06a2.74,2.74,0,0,1,0-.64c.24,0,.48,0,.72,0l.74,0a8,8,0,0,1,7.74-7.73c0-.51,0-1-.06-1.5a3.45,3.45,0,0,1,.65,0,.22.22,0,0,1,0,.08l0,.72,0,.62v.08l.8.08a7,7,0,0,1,1.56.37,6.74,6.74,0,0,1,.74.3c.24.12.48.24.71.38a7,7,0,0,1,.67.44c.21.16.42.33.62.51a6,6,0,0,1,.57.56c.18.2.34.41.5.62s.31.44.45.67.26.47.37.71a6.74,6.74,0,0,1,.3.74c.09.25.16.51.23.77a5.24,5.24,0,0,1,.15.79c0,.26,0,.53.08.8l.72,0,.73,0a.38.38,0,0,1,0,.21v.43h-.07l-.8,0-.54,0h-.06a8.06,8.06,0,0,1-7.75,7.74Zm-5.81-7.85a5.19,5.19,0,0,0,.67,2.51,5.67,5.67,0,0,0,2.57,2.39,5.21,5.21,0,0,0,2.14.48s0,0,0-.06,0-.35,0-.52c0-.42,0-.84.05-1.25,0-.68,0-1.36,0-2a.28.28,0,0,0,0-.09h-.06a1.35,1.35,0,0,1-.56-.17,1.53,1.53,0,0,1-.85-1.24.37.37,0,0,0,0-.09H225l-1.38,0-1.22.05Zm7.11-.08a1.6,1.6,0,0,1-.45,1,1.62,1.62,0,0,1-1,.47s0,.06,0,.09v.29c0,1,0,1.89.05,2.83l0,.7a.25.25,0,0,0,0,.07l.49,0a5.75,5.75,0,0,0,1.09-.25,5.57,5.57,0,0,0,2.42-1.63,5.43,5.43,0,0,0,1.11-1.92,5.53,5.53,0,0,0,.26-1.47.27.27,0,0,0,0-.09C231.86,242.62,230.54,242.62,229.21,242.63Zm-7.12-.25.16,0,.74,0,1,0h2a1.6,1.6,0,0,1,.46-1,1.57,1.57,0,0,1,1-.47v-.1c0-.89,0-1.78,0-2.68,0-.37,0-.74-.05-1.12,0,0,0,0,0-.06a5.35,5.35,0,0,0-3.62,1.49A5.56,5.56,0,0,0,222.09,242.38Zm5.64-1.42c.13,0,.26,0,.38.09a2.21,2.21,0,0,1,.35.16,1.14,1.14,0,0,1,.3.23,1.19,1.19,0,0,1,.23.31,2.17,2.17,0,0,1,.15.35,2.33,2.33,0,0,1,.08.38h.47c.76,0,1.52,0,2.28,0l1.15-.05h.07v0a5.82,5.82,0,0,0-.2-1.25,5.54,5.54,0,0,0-5.07-4.09.15.15,0,0,0-.11,0C227.73,238.33,227.7,239.64,227.73,241Zm-6.24,1.78a12,12,0,0,0-1.21,0,.48.48,0,0,0,0,.12,7.48,7.48,0,0,0,.12,1.06,7.28,7.28,0,0,0,2.24,4,7.5,7.5,0,0,0,2.74,1.6,6.43,6.43,0,0,0,1.3.29c.22,0,.44,0,.67.06h.05c0-.1.06-1.11,0-1.18a6.09,6.09,0,0,1-4.15-1.81A6,6,0,0,1,221.49,242.74Zm12.31,0a.13.13,0,0,0,0,.06,5.82,5.82,0,0,1-.07.73,6.15,6.15,0,0,1-.75,2.1,6.21,6.21,0,0,1-2.22,2.22,6,6,0,0,1-2.71.85h-.21v.3c0,.1,0,.2,0,.3a2.62,2.62,0,0,0,0,.28c0,.1,0,.2,0,.3H228l.37,0a6.53,6.53,0,0,0,1.32-.24,7.52,7.52,0,0,0,2.83-1.54,7.34,7.34,0,0,0,2.28-3.62,7.47,7.47,0,0,0,.25-1.63.43.43,0,0,1,0-.05A11.91,11.91,0,0,0,233.8,242.74Zm-6.4-7.54a7,7,0,0,0-2.27.44,7.41,7.41,0,0,0-4.59,5,6.84,6.84,0,0,0-.25,1.72l.59,0c.2,0,.4,0,.61,0a6.18,6.18,0,0,1,6-6C227.43,236,227.43,235.6,227.4,235.2Zm.43,1.19h.07a5.69,5.69,0,0,1,.71.07,6.17,6.17,0,0,1,5.17,5.63,2.46,2.46,0,0,0,0,.26l1.2-.05a7.39,7.39,0,0,0-5.78-6.95,5.9,5.9,0,0,0-1.34-.14Zm-.27,4.77a1.36,1.36,0,0,0-1.29,1.31h1.07a.37.37,0,0,1,.22-.22Zm0,1.71a.57.57,0,0,1-.14-.11.45.45,0,0,1-.1-.13c-.16,0-1,0-1.07,0v.05a1.42,1.42,0,0,0,1.17,1.25h.14Zm1.46-.4s0,0,0,0,0-.09,0-.13a1.34,1.34,0,0,0-.35-.69,1.4,1.4,0,0,0-.8-.45h-.14c0,.36,0,.72,0,1.09a.39.39,0,0,1,.23.22Zm0,.17a9.54,9.54,0,0,0-1.07,0,1,1,0,0,1-.09.13l-.13.09a9.52,9.52,0,0,0,0,1.08A1.36,1.36,0,0,0,229,242.64Z"/><path class="tgs-type" d="M248.63,220l4.47-2.2a2.17,2.17,0,0,1,3.13,1.95v6l4.8,0a2.16,2.16,0,0,1,2.16,2.18l0,3.05a2.17,2.17,0,0,1-2.17,2.16h-4.77v13.36c-.06,2.52.41,4.25,1.39,5.18a8.82,8.82,0,0,0,4.19,2h0a1.56,1.56,0,0,1,1,2.21L260.23,261l-2.88-.85a13.84,13.84,0,0,1-6-3.74,11.22,11.22,0,0,1-2.25-4,19.57,19.57,0,0,1-.49-4.9v-14l-4.59,0v-7.78l4.59.05Z"/></svg>